<svg xmlns="http://www.w3.org/2000/svg" width="900" height="350" viewBox="0 0 900 350"><rect width="100%" height="100%" fill="#fff"/>
<text x="24" y="34" font-family="Arial" font-size="20" font-weight="700" fill="#111827">Top-50 sparse-feature ablation: target cosine loss</text>
<line x1="90" y1="285.0" x2="870" y2="285.0" stroke="#e5e7eb"/>
<text x="80" y="289.0" text-anchor="end" font-family="Arial" font-size="11">0.00</text>
<line x1="90" y1="230.0" x2="870" y2="230.0" stroke="#e5e7eb"/>
<text x="80" y="234.0" text-anchor="end" font-family="Arial" font-size="11">0.03</text>
<line x1="90" y1="175.0" x2="870" y2="175.0" stroke="#e5e7eb"/>
<text x="80" y="179.0" text-anchor="end" font-family="Arial" font-size="11">0.05</text>
<line x1="90" y1="120.0" x2="870" y2="120.0" stroke="#e5e7eb"/>
<text x="80" y="124.0" text-anchor="end" font-family="Arial" font-size="11">0.08</text>
<line x1="90" y1="65.0" x2="870" y2="65.0" stroke="#e5e7eb"/>
<text x="80" y="69.0" text-anchor="end" font-family="Arial" font-size="11">0.10</text>
<rect x="138.8" y="101.7" width="97.5" height="183.3" fill="#b45309" rx="3"/>
<text x="187.5" y="315" text-anchor="middle" font-family="Arial" font-size="12">Pooled top</text>
<text x="187.5" y="94.7" text-anchor="middle" font-family="Arial" font-size="11">0.084</text>
<rect x="333.8" y="263.1" width="97.5" height="21.9" fill="#64748b" rx="3"/>
<text x="382.5" y="315" text-anchor="middle" font-family="Arial" font-size="12">Pooled random</text>
<text x="382.5" y="256.1" text-anchor="middle" font-family="Arial" font-size="11">0.010</text>
<rect x="528.8" y="116.2" width="97.5" height="168.8" fill="#b45309" rx="3"/>
<text x="577.5" y="315" text-anchor="middle" font-family="Arial" font-size="12">Temporal top</text>
<text x="577.5" y="109.2" text-anchor="middle" font-family="Arial" font-size="11">0.077</text>
<rect x="723.8" y="264.5" width="97.5" height="20.5" fill="#64748b" rx="3"/>
<text x="772.5" y="315" text-anchor="middle" font-family="Arial" font-size="12">Temporal random</text>
<text x="772.5" y="257.5" text-anchor="middle" font-family="Arial" font-size="11">0.009</text>
</svg>
