<svg xmlns="http://www.w3.org/2000/svg" width="900" height="468" viewBox="0 0 900 468">
<rect width="900" height="468" fill="#ffffff"/>
<text x="24" y="36" font-family="Arial, sans-serif" font-size="20" font-weight="700" fill="#111827">Residual-HuBERT cosine loss after zero ablation</text>
<line x1="250.0" y1="48" x2="250.0" y2="434" stroke="#e5e7eb"/>
<text x="250.0" y="456" text-anchor="middle" font-family="Arial" font-size="11">0.00</text>
<line x1="382.5" y1="48" x2="382.5" y2="434" stroke="#e5e7eb"/>
<text x="382.5" y="456" text-anchor="middle" font-family="Arial" font-size="11">0.02</text>
<line x1="515.0" y1="48" x2="515.0" y2="434" stroke="#e5e7eb"/>
<text x="515.0" y="456" text-anchor="middle" font-family="Arial" font-size="11">0.05</text>
<line x1="647.5" y1="48" x2="647.5" y2="434" stroke="#e5e7eb"/>
<text x="647.5" y="456" text-anchor="middle" font-family="Arial" font-size="11">0.07</text>
<line x1="780.0" y1="48" x2="780.0" y2="434" stroke="#e5e7eb"/>
<text x="780.0" y="456" text-anchor="middle" font-family="Arial" font-size="11">0.10</text>
<text x="24" y="81" font-family="Arial" font-size="12">Top 1</text>
<rect x="250" y="64" width="20.6" height="21" rx="3" fill="#b45309"/>
<text x="277.6" y="80" font-family="Arial" font-size="11">0.004</text>
<text x="24" y="117" font-family="Arial" font-size="12">Random 1</text>
<rect x="250" y="100" width="0.8" height="21" rx="3" fill="#6b7280"/>
<text x="257.8" y="116" font-family="Arial" font-size="11">0.000</text>
<text x="24" y="153" font-family="Arial" font-size="12">Top 5</text>
<rect x="250" y="136" width="69.0" height="21" rx="3" fill="#b45309"/>
<text x="326.0" y="152" font-family="Arial" font-size="11">0.013</text>
<text x="24" y="189" font-family="Arial" font-size="12">Random 5</text>
<rect x="250" y="172" width="3.6" height="21" rx="3" fill="#6b7280"/>
<text x="260.6" y="188" font-family="Arial" font-size="11">0.001</text>
<text x="24" y="225" font-family="Arial" font-size="12">Top 10</text>
<rect x="250" y="208" width="120.8" height="21" rx="3" fill="#b45309"/>
<text x="377.8" y="224" font-family="Arial" font-size="11">0.022</text>
<text x="24" y="261" font-family="Arial" font-size="12">Random 10</text>
<rect x="250" y="244" width="11.5" height="21" rx="3" fill="#6b7280"/>
<text x="268.5" y="260" font-family="Arial" font-size="11">0.002</text>
<text x="24" y="297" font-family="Arial" font-size="12">Top 20</text>
<rect x="250" y="280" width="206.4" height="21" rx="3" fill="#b45309"/>
<text x="463.4" y="296" font-family="Arial" font-size="11">0.037</text>
<text x="24" y="333" font-family="Arial" font-size="12">Random 20</text>
<rect x="250" y="316" width="26.4" height="21" rx="3" fill="#6b7280"/>
<text x="283.4" y="332" font-family="Arial" font-size="11">0.005</text>
<text x="24" y="369" font-family="Arial" font-size="12">Top 50</text>
<rect x="250" y="352" width="460.9" height="21" rx="3" fill="#b45309"/>
<text x="717.9" y="368" font-family="Arial" font-size="11">0.084</text>
<text x="24" y="405" font-family="Arial" font-size="12">Random 50</text>
<rect x="250" y="388" width="55.2" height="21" rx="3" fill="#6b7280"/>
<text x="312.2" y="404" font-family="Arial" font-size="11">0.010</text>
</svg>
