<svg xmlns="http://www.w3.org/2000/svg" width="900" height="621" viewBox="0 0 900 621">
<rect width="900" height="621" fill="#ffffff"/>
<text x="24" y="36" font-family="Arial, sans-serif" font-size="20" font-weight="700" fill="#111827">HuBERT student linear-probe accuracy</text>
<line x1="260.0" y1="48" x2="260.0" y2="586" stroke="#e5e7eb"/>
<text x="260.0" y="607" text-anchor="middle" font-family="Arial, sans-serif" font-size="11" fill="#374151">0%</text>
<line x1="400.0" y1="48" x2="400.0" y2="586" stroke="#e5e7eb"/>
<text x="400.0" y="607" text-anchor="middle" font-family="Arial, sans-serif" font-size="11" fill="#374151">25%</text>
<line x1="540.0" y1="48" x2="540.0" y2="586" stroke="#e5e7eb"/>
<text x="540.0" y="607" text-anchor="middle" font-family="Arial, sans-serif" font-size="11" fill="#374151">50%</text>
<line x1="680.0" y1="48" x2="680.0" y2="586" stroke="#e5e7eb"/>
<text x="680.0" y="607" text-anchor="middle" font-family="Arial, sans-serif" font-size="11" fill="#374151">75%</text>
<line x1="820.0" y1="48" x2="820.0" y2="586" stroke="#e5e7eb"/>
<text x="820.0" y="607" text-anchor="middle" font-family="Arial, sans-serif" font-size="11" fill="#374151">100%</text>
<text x="24" y="83" font-family="Arial, sans-serif" font-size="12" fill="#111827">Utterance Class / Sensor input</text>
<rect x="260" y="66" width="378.5" height="20" rx="3" fill="#2563eb"/>
<text x="645.5" y="82" font-family="Arial, sans-serif" font-size="11" fill="#111827">67.6%</text>
<text x="24" y="117" font-family="Arial, sans-serif" font-size="12" fill="#111827">Utterance Class / Hidden</text>
<rect x="260" y="100" width="370.1" height="20" rx="3" fill="#2563eb"/>
<text x="637.1" y="116" font-family="Arial, sans-serif" font-size="11" fill="#111827">66.1%</text>
<text x="24" y="151" font-family="Arial, sans-serif" font-size="12" fill="#111827">Utterance Class / Bottleneck</text>
<rect x="260" y="134" width="363.2" height="20" rx="3" fill="#2563eb"/>
<text x="630.2" y="150" font-family="Arial, sans-serif" font-size="11" fill="#111827">64.9%</text>
<text x="24" y="185" font-family="Arial, sans-serif" font-size="12" fill="#111827">Utterance Class / Predicted HuBERT</text>
<rect x="260" y="168" width="346.7" height="20" rx="3" fill="#2563eb"/>
<text x="613.7" y="184" font-family="Arial, sans-serif" font-size="11" fill="#111827">61.9%</text>
<text x="24" y="219" font-family="Arial, sans-serif" font-size="12" fill="#111827">Utterance Class / Teacher HuBERT</text>
<rect x="260" y="202" width="488.9" height="20" rx="3" fill="#2563eb"/>
<text x="755.9" y="218" font-family="Arial, sans-serif" font-size="11" fill="#111827">87.3%</text>
<text x="24" y="253" font-family="Arial, sans-serif" font-size="12" fill="#111827">Utterance Type / Sensor input</text>
<rect x="260" y="236" width="526.9" height="20" rx="3" fill="#0f766e"/>
<text x="793.9" y="252" font-family="Arial, sans-serif" font-size="11" fill="#111827">94.1%</text>
<text x="24" y="287" font-family="Arial, sans-serif" font-size="12" fill="#111827">Utterance Type / Hidden</text>
<rect x="260" y="270" width="541.9" height="20" rx="3" fill="#0f766e"/>
<text x="808.9" y="286" font-family="Arial, sans-serif" font-size="11" fill="#111827">96.8%</text>
<text x="24" y="321" font-family="Arial, sans-serif" font-size="12" fill="#111827">Utterance Type / Bottleneck</text>
<rect x="260" y="304" width="532.4" height="20" rx="3" fill="#0f766e"/>
<text x="799.4" y="320" font-family="Arial, sans-serif" font-size="11" fill="#111827">95.1%</text>
<text x="24" y="355" font-family="Arial, sans-serif" font-size="12" fill="#111827">Utterance Type / Predicted HuBERT</text>
<rect x="260" y="338" width="530.7" height="20" rx="3" fill="#0f766e"/>
<text x="797.7" y="354" font-family="Arial, sans-serif" font-size="11" fill="#111827">94.8%</text>
<text x="24" y="389" font-family="Arial, sans-serif" font-size="12" fill="#111827">Utterance Type / Teacher HuBERT</text>
<rect x="260" y="372" width="539.3" height="20" rx="3" fill="#0f766e"/>
<text x="806.3" y="388" font-family="Arial, sans-serif" font-size="11" fill="#111827">96.3%</text>
<text x="24" y="423" font-family="Arial, sans-serif" font-size="12" fill="#111827">Speaker Leakage / Sensor input</text>
<rect x="260" y="406" width="344.1" height="20" rx="3" fill="#b45309"/>
<text x="611.1" y="422" font-family="Arial, sans-serif" font-size="11" fill="#111827">61.4%</text>
<text x="24" y="457" font-family="Arial, sans-serif" font-size="12" fill="#111827">Speaker Leakage / Hidden</text>
<rect x="260" y="440" width="168.2" height="20" rx="3" fill="#b45309"/>
<text x="435.2" y="456" font-family="Arial, sans-serif" font-size="11" fill="#111827">30.0%</text>
<text x="24" y="491" font-family="Arial, sans-serif" font-size="12" fill="#111827">Speaker Leakage / Bottleneck</text>
<rect x="260" y="474" width="64.2" height="20" rx="3" fill="#b45309"/>
<text x="331.2" y="490" font-family="Arial, sans-serif" font-size="11" fill="#111827">11.5%</text>
<text x="24" y="525" font-family="Arial, sans-serif" font-size="12" fill="#111827">Speaker Leakage / Predicted HuBERT</text>
<rect x="260" y="508" width="84.7" height="20" rx="3" fill="#b45309"/>
<text x="351.7" y="524" font-family="Arial, sans-serif" font-size="11" fill="#111827">15.1%</text>
<text x="24" y="559" font-family="Arial, sans-serif" font-size="12" fill="#111827">Speaker Leakage / Teacher HuBERT</text>
<rect x="260" y="542" width="494.7" height="20" rx="3" fill="#b45309"/>
<text x="761.7" y="558" font-family="Arial, sans-serif" font-size="11" fill="#111827">88.3%</text>
</svg>
