<svg xmlns="http://www.w3.org/2000/svg" width="900" height="288" viewBox="0 0 900 288">
<rect width="900" height="288" fill="#ffffff"/>
<text x="24" y="36" font-family="Arial, sans-serif" font-size="20" font-weight="700" fill="#111827">Held-out SAE explained variance</text>
<line x1="250.0" y1="48" x2="250.0" y2="254" stroke="#e5e7eb"/>
<text x="250.0" y="276" text-anchor="middle" font-family="Arial" font-size="11">0.00</text>
<line x1="382.5" y1="48" x2="382.5" y2="254" stroke="#e5e7eb"/>
<text x="382.5" y="276" text-anchor="middle" font-family="Arial" font-size="11">0.25</text>
<line x1="515.0" y1="48" x2="515.0" y2="254" stroke="#e5e7eb"/>
<text x="515.0" y="276" text-anchor="middle" font-family="Arial" font-size="11">0.50</text>
<line x1="647.5" y1="48" x2="647.5" y2="254" stroke="#e5e7eb"/>
<text x="647.5" y="276" text-anchor="middle" font-family="Arial" font-size="11">0.75</text>
<line x1="780.0" y1="48" x2="780.0" y2="254" stroke="#e5e7eb"/>
<text x="780.0" y="276" text-anchor="middle" font-family="Arial" font-size="11">1.00</text>
<text x="24" y="81" font-family="Arial" font-size="12">Fold 0</text>
<rect x="250" y="64" width="423.8" height="21" rx="3" fill="#0f766e"/>
<text x="680.8" y="80" font-family="Arial" font-size="11">0.800</text>
<text x="24" y="117" font-family="Arial" font-size="12">Fold 1</text>
<rect x="250" y="100" width="361.7" height="21" rx="3" fill="#0f766e"/>
<text x="618.7" y="116" font-family="Arial" font-size="11">0.682</text>
<text x="24" y="153" font-family="Arial" font-size="12">Fold 2</text>
<rect x="250" y="136" width="349.1" height="21" rx="3" fill="#0f766e"/>
<text x="606.1" y="152" font-family="Arial" font-size="11">0.659</text>
<text x="24" y="189" font-family="Arial" font-size="12">Fold 3</text>
<rect x="250" y="172" width="383.8" height="21" rx="3" fill="#0f766e"/>
<text x="640.8" y="188" font-family="Arial" font-size="11">0.724</text>
<text x="24" y="225" font-family="Arial" font-size="12">Fold 4</text>
<rect x="250" y="208" width="307.9" height="21" rx="3" fill="#0f766e"/>
<text x="564.9" y="224" font-family="Arial" font-size="11">0.581</text>
</svg>
