<svg xmlns="http://www.w3.org/2000/svg" width="900" height="350" viewBox="0 0 900 350"><rect width="100%" height="100%" fill="#fff"/>
<text x="24" y="34" font-family="Arial" font-size="20" font-weight="700" fill="#111827">Pooled versus temporal HuBERT student accuracy</text>
<line x1="90" y1="295.0" x2="870" y2="295.0" stroke="#e5e7eb"/>
<text x="80" y="299.0" text-anchor="end" font-family="Arial" font-size="11">0.00</text>
<line x1="90" y1="236.2" x2="870" y2="236.2" stroke="#e5e7eb"/>
<text x="80" y="240.2" text-anchor="end" font-family="Arial" font-size="11">0.25</text>
<line x1="90" y1="177.5" x2="870" y2="177.5" stroke="#e5e7eb"/>
<text x="80" y="181.5" text-anchor="end" font-family="Arial" font-size="11">0.50</text>
<line x1="90" y1="118.8" x2="870" y2="118.8" stroke="#e5e7eb"/>
<text x="80" y="122.8" text-anchor="end" font-family="Arial" font-size="11">0.75</text>
<line x1="90" y1="60.0" x2="870" y2="60.0" stroke="#e5e7eb"/>
<text x="80" y="64.0" text-anchor="end" font-family="Arial" font-size="11">1.00</text>
<rect x="140.0" y="136.3" width="24" height="158.7" fill="#64748b" rx="2"/>
<rect x="172.0" y="140.3" width="24" height="154.7" fill="#0f766e" rx="2"/>
<text x="168.0" y="325" text-anchor="middle" font-family="Arial" font-size="12">Fold 0</text>
<rect x="296.0" y="151.4" width="24" height="143.6" fill="#64748b" rx="2"/>
<rect x="328.0" y="159.2" width="24" height="135.8" fill="#0f766e" rx="2"/>
<text x="324.0" y="325" text-anchor="middle" font-family="Arial" font-size="12">Fold 1</text>
<rect x="452.0" y="147.5" width="24" height="147.5" fill="#64748b" rx="2"/>
<rect x="484.0" y="140.6" width="24" height="154.4" fill="#0f766e" rx="2"/>
<text x="480.0" y="325" text-anchor="middle" font-family="Arial" font-size="12">Fold 2</text>
<rect x="608.0" y="119.3" width="24" height="175.7" fill="#64748b" rx="2"/>
<rect x="640.0" y="111.1" width="24" height="183.9" fill="#0f766e" rx="2"/>
<text x="636.0" y="325" text-anchor="middle" font-family="Arial" font-size="12">Fold 3</text>
<rect x="764.0" y="168.3" width="24" height="126.7" fill="#64748b" rx="2"/>
<rect x="796.0" y="166.3" width="24" height="128.7" fill="#0f766e" rx="2"/>
<text x="792.0" y="325" text-anchor="middle" font-family="Arial" font-size="12">Fold 4</text>
<rect x="650" y="18" width="12" height="12" fill="#64748b"/><text x="668" y="29" font-family="Arial" font-size="11">Pooled</text>
<rect x="730" y="18" width="12" height="12" fill="#0f766e"/><text x="748" y="29" font-family="Arial" font-size="11">Temporal</text>
</svg>
