<svg xmlns="http://www.w3.org/2000/svg" width="900" height="470" viewBox="0 0 900 470"><rect width="100%" height="100%" fill="#fff"/>
<text x="24" y="34" font-family="Arial" font-size="20" font-weight="700" fill="#111827">Articulation R2 gain over class-and-position baseline</text>
<line x1="575.0" y1="48" x2="575.0" y2="442" stroke="#9ca3af"/>
<text x="24" y="78" font-family="Arial" font-size="11">All Modalities / lip aperture</text>
<rect x="575.0" y="62" width="98.4" height="20" fill="#0f766e" rx="2"/>
<text x="678.4" y="77" text-anchor="start" font-family="Arial" font-size="10">+0.350</text>
<text x="24" y="109" font-family="Arial" font-size="11">All Modalities / lip motion</text>
<rect x="575.0" y="93" width="45.8" height="20" fill="#0f766e" rx="2"/>
<text x="625.8" y="108" text-anchor="start" font-family="Arial" font-size="10">+0.163</text>
<text x="24" y="140" font-family="Arial" font-size="11">All Modalities / lip width</text>
<rect x="575.0" y="124" width="193.6" height="20" fill="#0f766e" rx="2"/>
<text x="773.6" y="139" text-anchor="start" font-family="Arial" font-size="10">+0.688</text>
<text x="24" y="171" font-family="Arial" font-size="11">Contactless Nonlip / lip aperture</text>
<rect x="574.5" y="155" width="0.5" height="20" fill="#b45309" rx="2"/>
<text x="569.5" y="170" text-anchor="end" font-family="Arial" font-size="10">-0.002</text>
<text x="24" y="202" font-family="Arial" font-size="11">Contactless Nonlip / lip motion</text>
<rect x="575.0" y="186" width="21.4" height="20" fill="#0f766e" rx="2"/>
<text x="601.4" y="201" text-anchor="start" font-family="Arial" font-size="10">+0.076</text>
<text x="24" y="233" font-family="Arial" font-size="11">Contactless Nonlip / lip width</text>
<rect x="546.3" y="217" width="28.7" height="20" fill="#b45309" rx="2"/>
<text x="541.3" y="232" text-anchor="end" font-family="Arial" font-size="10">-0.102</text>
<text x="24" y="264" font-family="Arial" font-size="11">Lip / lip aperture</text>
<rect x="575.0" y="248" width="99.7" height="20" fill="#0f766e" rx="2"/>
<text x="679.7" y="263" text-anchor="start" font-family="Arial" font-size="10">+0.355</text>
<text x="24" y="295" font-family="Arial" font-size="11">Lip / lip motion</text>
<rect x="575.0" y="279" width="30.1" height="20" fill="#0f766e" rx="2"/>
<text x="610.1" y="294" text-anchor="start" font-family="Arial" font-size="10">+0.107</text>
<text x="24" y="326" font-family="Arial" font-size="11">Lip / lip width</text>
<rect x="575.0" y="310" width="213.0" height="20" fill="#0f766e" rx="2"/>
<text x="793.0" y="325" text-anchor="start" font-family="Arial" font-size="10">+0.757</text>
<text x="24" y="357" font-family="Arial" font-size="11">Temporal Student / lip aperture</text>
<rect x="575.0" y="341" width="15.6" height="20" fill="#0f766e" rx="2"/>
<text x="595.6" y="356" text-anchor="start" font-family="Arial" font-size="10">+0.056</text>
<text x="24" y="388" font-family="Arial" font-size="11">Temporal Student / lip motion</text>
<rect x="575.0" y="372" width="12.3" height="20" fill="#0f766e" rx="2"/>
<text x="592.3" y="387" text-anchor="start" font-family="Arial" font-size="10">+0.044</text>
<text x="24" y="419" font-family="Arial" font-size="11">Temporal Student / lip width</text>
<rect x="575.0" y="403" width="30.3" height="20" fill="#0f766e" rx="2"/>
<text x="610.3" y="418" text-anchor="start" font-family="Arial" font-size="10">+0.108</text>
</svg>
