<svg xmlns="http://www.w3.org/2000/svg" width="900" height="350" viewBox="0 0 900 350"><rect width="100%" height="100%" fill="#fff"/>
<text x="24" y="34" font-family="Arial" font-size="20" font-weight="700" fill="#111827">Temporal HuBERT alignment from silent inputs</text>
<line x1="90" y1="295.0" x2="870" y2="295.0" stroke="#e5e7eb"/>
<text x="80" y="299.0" text-anchor="end" font-family="Arial" font-size="11">0.00</text>
<line x1="90" y1="236.2" x2="870" y2="236.2" stroke="#e5e7eb"/>
<text x="80" y="240.2" text-anchor="end" font-family="Arial" font-size="11">0.12</text>
<line x1="90" y1="177.5" x2="870" y2="177.5" stroke="#e5e7eb"/>
<text x="80" y="181.5" text-anchor="end" font-family="Arial" font-size="11">0.24</text>
<line x1="90" y1="118.8" x2="870" y2="118.8" stroke="#e5e7eb"/>
<text x="80" y="122.8" text-anchor="end" font-family="Arial" font-size="11">0.36</text>
<line x1="90" y1="60.0" x2="870" y2="60.0" stroke="#e5e7eb"/>
<text x="80" y="64.0" text-anchor="end" font-family="Arial" font-size="11">0.48</text>
<rect x="138.0" y="117.1" width="26" height="177.9" fill="#64748b" rx="2"/>
<rect x="172.0" y="99.2" width="26" height="195.8" fill="#0f766e" rx="2"/>
<text x="168.0" y="325" text-anchor="middle" font-family="Arial" font-size="12">Fold 0</text>
<rect x="294.0" y="150.7" width="26" height="144.3" fill="#64748b" rx="2"/>
<rect x="328.0" y="111.1" width="26" height="183.9" fill="#0f766e" rx="2"/>
<text x="324.0" y="325" text-anchor="middle" font-family="Arial" font-size="12">Fold 1</text>
<rect x="450.0" y="113.5" width="26" height="181.5" fill="#64748b" rx="2"/>
<rect x="484.0" y="100.3" width="26" height="194.7" fill="#0f766e" rx="2"/>
<text x="480.0" y="325" text-anchor="middle" font-family="Arial" font-size="12">Fold 2</text>
<rect x="606.0" y="124.1" width="26" height="170.9" fill="#64748b" rx="2"/>
<rect x="640.0" y="105.5" width="26" height="189.5" fill="#0f766e" rx="2"/>
<text x="636.0" y="325" text-anchor="middle" font-family="Arial" font-size="12">Fold 3</text>
<rect x="762.0" y="119.0" width="26" height="176.0" fill="#64748b" rx="2"/>
<rect x="796.0" y="122.0" width="26" height="173.0" fill="#0f766e" rx="2"/>
<text x="792.0" y="325" text-anchor="middle" font-family="Arial" font-size="12">Fold 4</text>
<rect x="640" y="18" width="12" height="12" fill="#64748b"/><text x="658" y="29" font-family="Arial" font-size="11">Fixed embeddings</text>
<rect x="755" y="18" width="12" height="12" fill="#0f766e"/><text x="773" y="29" font-family="Arial" font-size="11">Temporal states</text>
</svg>
