<svg xmlns="http://www.w3.org/2000/svg" width="760" height="320" viewBox="0 0 760 320">
<rect width="760" height="320" fill="#ffffff"/>
<text x="24.0" y="34.0" font-family="Inter, Arial, sans-serif" font-size="20" font-weight="700" text-anchor="start" fill="#111827">Validation-derived modality weights</text>
<text x="166.0" y="54.0" font-family="Inter, Arial, sans-serif" font-size="12" font-weight="400" text-anchor="middle" fill="#111827">Lip</text>
<text x="278.0" y="54.0" font-family="Inter, Arial, sans-serif" font-size="12" font-weight="400" text-anchor="middle" fill="#111827">Mouth</text>
<text x="390.0" y="54.0" font-family="Inter, Arial, sans-serif" font-size="12" font-weight="400" text-anchor="middle" fill="#111827">UWB</text>
<text x="502.0" y="54.0" font-family="Inter, Arial, sans-serif" font-size="12" font-weight="400" text-anchor="middle" fill="#111827">mmWave</text>
<text x="614.0" y="54.0" font-family="Inter, Arial, sans-serif" font-size="12" font-weight="400" text-anchor="middle" fill="#111827">Laser</text>
<text x="28.0" y="96.0" font-family="Inter, Arial, sans-serif" font-size="12" font-weight="400" text-anchor="start" fill="#111827">Fold 0</text>
<rect x="110" y="72" width="108" height="34" rx="3" fill="rgb(95,235,225)" stroke="#ffffff"/>
<text x="164.0" y="95.0" font-family="Inter, Arial, sans-serif" font-size="12" font-weight="400" text-anchor="middle" fill="#111827">65.9%</text>
<rect x="222" y="72" width="108" height="34" rx="3" fill="rgb(245,235,225)" stroke="#ffffff"/>
<text x="276.0" y="95.0" font-family="Inter, Arial, sans-serif" font-size="12" font-weight="400" text-anchor="middle" fill="#111827">0.0%</text>
<rect x="334" y="72" width="108" height="34" rx="3" fill="rgb(222,235,225)" stroke="#ffffff"/>
<text x="388.0" y="95.0" font-family="Inter, Arial, sans-serif" font-size="12" font-weight="400" text-anchor="middle" fill="#111827">9.8%</text>
<rect x="446" y="72" width="108" height="34" rx="3" fill="rgb(233,235,225)" stroke="#ffffff"/>
<text x="500.0" y="95.0" font-family="Inter, Arial, sans-serif" font-size="12" font-weight="400" text-anchor="middle" fill="#111827">4.9%</text>
<rect x="558" y="72" width="108" height="34" rx="3" fill="rgb(200,235,225)" stroke="#ffffff"/>
<text x="612.0" y="95.0" font-family="Inter, Arial, sans-serif" font-size="12" font-weight="400" text-anchor="middle" fill="#111827">19.5%</text>
<text x="28.0" y="134.0" font-family="Inter, Arial, sans-serif" font-size="12" font-weight="400" text-anchor="start" fill="#111827">Fold 1</text>
<rect x="110" y="110" width="108" height="34" rx="3" fill="rgb(138,235,225)" stroke="#ffffff"/>
<text x="164.0" y="133.0" font-family="Inter, Arial, sans-serif" font-size="12" font-weight="400" text-anchor="middle" fill="#111827">46.9%</text>
<rect x="222" y="110" width="108" height="34" rx="3" fill="rgb(245,235,225)" stroke="#ffffff"/>
<text x="276.0" y="133.0" font-family="Inter, Arial, sans-serif" font-size="12" font-weight="400" text-anchor="middle" fill="#111827">0.0%</text>
<rect x="334" y="110" width="108" height="34" rx="3" fill="rgb(197,235,225)" stroke="#ffffff"/>
<text x="388.0" y="133.0" font-family="Inter, Arial, sans-serif" font-size="12" font-weight="400" text-anchor="middle" fill="#111827">20.8%</text>
<rect x="446" y="110" width="108" height="34" rx="3" fill="rgb(209,235,225)" stroke="#ffffff"/>
<text x="500.0" y="133.0" font-family="Inter, Arial, sans-serif" font-size="12" font-weight="400" text-anchor="middle" fill="#111827">15.6%</text>
<rect x="558" y="110" width="108" height="34" rx="3" fill="rgb(207,235,225)" stroke="#ffffff"/>
<text x="612.0" y="133.0" font-family="Inter, Arial, sans-serif" font-size="12" font-weight="400" text-anchor="middle" fill="#111827">16.7%</text>
<text x="28.0" y="172.0" font-family="Inter, Arial, sans-serif" font-size="12" font-weight="400" text-anchor="start" fill="#111827">Fold 2</text>
<rect x="110" y="148" width="108" height="34" rx="3" fill="rgb(141,235,225)" stroke="#ffffff"/>
<text x="164.0" y="171.0" font-family="Inter, Arial, sans-serif" font-size="12" font-weight="400" text-anchor="middle" fill="#111827">45.4%</text>
<rect x="222" y="148" width="108" height="34" rx="3" fill="rgb(245,235,225)" stroke="#ffffff"/>
<text x="276.0" y="171.0" font-family="Inter, Arial, sans-serif" font-size="12" font-weight="400" text-anchor="middle" fill="#111827">0.0%</text>
<rect x="334" y="148" width="108" height="34" rx="3" fill="rgb(174,235,225)" stroke="#ffffff"/>
<text x="388.0" y="171.0" font-family="Inter, Arial, sans-serif" font-size="12" font-weight="400" text-anchor="middle" fill="#111827">30.9%</text>
<rect x="446" y="148" width="108" height="34" rx="3" fill="rgb(226,235,225)" stroke="#ffffff"/>
<text x="500.0" y="171.0" font-family="Inter, Arial, sans-serif" font-size="12" font-weight="400" text-anchor="middle" fill="#111827">8.2%</text>
<rect x="558" y="148" width="108" height="34" rx="3" fill="rgb(209,235,225)" stroke="#ffffff"/>
<text x="612.0" y="171.0" font-family="Inter, Arial, sans-serif" font-size="12" font-weight="400" text-anchor="middle" fill="#111827">15.5%</text>
<text x="28.0" y="210.0" font-family="Inter, Arial, sans-serif" font-size="12" font-weight="400" text-anchor="start" fill="#111827">Fold 3</text>
<rect x="110" y="186" width="108" height="34" rx="3" fill="rgb(119,235,225)" stroke="#ffffff"/>
<text x="164.0" y="209.0" font-family="Inter, Arial, sans-serif" font-size="12" font-weight="400" text-anchor="middle" fill="#111827">54.9%</text>
<rect x="222" y="186" width="108" height="34" rx="3" fill="rgb(245,235,225)" stroke="#ffffff"/>
<text x="276.0" y="209.0" font-family="Inter, Arial, sans-serif" font-size="12" font-weight="400" text-anchor="middle" fill="#111827">0.0%</text>
<rect x="334" y="186" width="108" height="34" rx="3" fill="rgb(192,235,225)" stroke="#ffffff"/>
<text x="388.0" y="209.0" font-family="Inter, Arial, sans-serif" font-size="12" font-weight="400" text-anchor="middle" fill="#111827">23.1%</text>
<rect x="446" y="186" width="108" height="34" rx="3" fill="rgb(217,235,225)" stroke="#ffffff"/>
<text x="500.0" y="209.0" font-family="Inter, Arial, sans-serif" font-size="12" font-weight="400" text-anchor="middle" fill="#111827">12.1%</text>
<rect x="558" y="186" width="108" height="34" rx="3" fill="rgb(222,235,225)" stroke="#ffffff"/>
<text x="612.0" y="209.0" font-family="Inter, Arial, sans-serif" font-size="12" font-weight="400" text-anchor="middle" fill="#111827">9.9%</text>
<text x="28.0" y="248.0" font-family="Inter, Arial, sans-serif" font-size="12" font-weight="400" text-anchor="start" fill="#111827">Fold 4</text>
<rect x="110" y="224" width="108" height="34" rx="3" fill="rgb(134,235,225)" stroke="#ffffff"/>
<text x="164.0" y="247.0" font-family="Inter, Arial, sans-serif" font-size="12" font-weight="400" text-anchor="middle" fill="#111827">48.4%</text>
<rect x="222" y="224" width="108" height="34" rx="3" fill="rgb(245,235,225)" stroke="#ffffff"/>
<text x="276.0" y="247.0" font-family="Inter, Arial, sans-serif" font-size="12" font-weight="400" text-anchor="middle" fill="#111827">0.0%</text>
<rect x="334" y="224" width="108" height="34" rx="3" fill="rgb(179,235,225)" stroke="#ffffff"/>
<text x="388.0" y="247.0" font-family="Inter, Arial, sans-serif" font-size="12" font-weight="400" text-anchor="middle" fill="#111827">28.6%</text>
<rect x="446" y="224" width="108" height="34" rx="3" fill="rgb(217,235,225)" stroke="#ffffff"/>
<text x="500.0" y="247.0" font-family="Inter, Arial, sans-serif" font-size="12" font-weight="400" text-anchor="middle" fill="#111827">12.1%</text>
<rect x="558" y="224" width="108" height="34" rx="3" fill="rgb(219,235,225)" stroke="#ffffff"/>
<text x="612.0" y="247.0" font-family="Inter, Arial, sans-serif" font-size="12" font-weight="400" text-anchor="middle" fill="#111827">11.0%</text>
</svg>
