<svg xmlns="http://www.w3.org/2000/svg" width="760" height="320" viewBox="0 0 760 320">
<rect width="760" height="320" fill="#ffffff"/>
<text x="24.0" y="34.0" font-family="Inter, Arial, sans-serif" font-size="20" font-weight="700" text-anchor="start" fill="#111827">Validation-derived modality weights</text>
<text x="166.0" y="54.0" font-family="Inter, Arial, sans-serif" font-size="12" font-weight="400" text-anchor="middle" fill="#111827">Lip</text>
<text x="278.0" y="54.0" font-family="Inter, Arial, sans-serif" font-size="12" font-weight="400" text-anchor="middle" fill="#111827">Mouth</text>
<text x="390.0" y="54.0" font-family="Inter, Arial, sans-serif" font-size="12" font-weight="400" text-anchor="middle" fill="#111827">UWB</text>
<text x="502.0" y="54.0" font-family="Inter, Arial, sans-serif" font-size="12" font-weight="400" text-anchor="middle" fill="#111827">mmWave</text>
<text x="614.0" y="54.0" font-family="Inter, Arial, sans-serif" font-size="12" font-weight="400" text-anchor="middle" fill="#111827">Laser</text>
<text x="28.0" y="96.0" font-family="Inter, Arial, sans-serif" font-size="12" font-weight="400" text-anchor="start" fill="#111827">Fold 0</text>
<rect x="110" y="72" width="108" height="34" rx="3" fill="rgb(95,235,225)" stroke="#ffffff"/>
<text x="164.0" y="95.0" font-family="Inter, Arial, sans-serif" font-size="12" font-weight="400" text-anchor="middle" fill="#111827">63.5%</text>
<rect x="222" y="72" width="108" height="34" rx="3" fill="rgb(236,235,225)" stroke="#ffffff"/>
<text x="276.0" y="95.0" font-family="Inter, Arial, sans-serif" font-size="12" font-weight="400" text-anchor="middle" fill="#111827">3.5%</text>
<rect x="334" y="72" width="108" height="34" rx="3" fill="rgb(222,235,225)" stroke="#ffffff"/>
<text x="388.0" y="95.0" font-family="Inter, Arial, sans-serif" font-size="12" font-weight="400" text-anchor="middle" fill="#111827">9.4%</text>
<rect x="446" y="72" width="108" height="34" rx="3" fill="rgb(233,235,225)" stroke="#ffffff"/>
<text x="500.0" y="95.0" font-family="Inter, Arial, sans-serif" font-size="12" font-weight="400" text-anchor="middle" fill="#111827">4.7%</text>
<rect x="558" y="72" width="108" height="34" rx="3" fill="rgb(200,235,225)" stroke="#ffffff"/>
<text x="612.0" y="95.0" font-family="Inter, Arial, sans-serif" font-size="12" font-weight="400" text-anchor="middle" fill="#111827">18.8%</text>
<text x="28.0" y="134.0" font-family="Inter, Arial, sans-serif" font-size="12" font-weight="400" text-anchor="start" fill="#111827">Fold 1</text>
<rect x="110" y="110" width="108" height="34" rx="3" fill="rgb(140,235,225)" stroke="#ffffff"/>
<text x="164.0" y="133.0" font-family="Inter, Arial, sans-serif" font-size="12" font-weight="400" text-anchor="middle" fill="#111827">44.1%</text>
<rect x="222" y="110" width="108" height="34" rx="3" fill="rgb(231,235,225)" stroke="#ffffff"/>
<text x="276.0" y="133.0" font-family="Inter, Arial, sans-serif" font-size="12" font-weight="400" text-anchor="middle" fill="#111827">5.9%</text>
<rect x="334" y="110" width="108" height="34" rx="3" fill="rgb(198,235,225)" stroke="#ffffff"/>
<text x="388.0" y="133.0" font-family="Inter, Arial, sans-serif" font-size="12" font-weight="400" text-anchor="middle" fill="#111827">19.6%</text>
<rect x="446" y="110" width="108" height="34" rx="3" fill="rgb(210,235,225)" stroke="#ffffff"/>
<text x="500.0" y="133.0" font-family="Inter, Arial, sans-serif" font-size="12" font-weight="400" text-anchor="middle" fill="#111827">14.7%</text>
<rect x="558" y="110" width="108" height="34" rx="3" fill="rgb(207,235,225)" stroke="#ffffff"/>
<text x="612.0" y="133.0" font-family="Inter, Arial, sans-serif" font-size="12" font-weight="400" text-anchor="middle" fill="#111827">15.7%</text>
<text x="28.0" y="172.0" font-family="Inter, Arial, sans-serif" font-size="12" font-weight="400" text-anchor="start" fill="#111827">Fold 2</text>
<rect x="110" y="148" width="108" height="34" rx="3" fill="rgb(141,235,225)" stroke="#ffffff"/>
<text x="164.0" y="171.0" font-family="Inter, Arial, sans-serif" font-size="12" font-weight="400" text-anchor="middle" fill="#111827">44.0%</text>
<rect x="222" y="148" width="108" height="34" rx="3" fill="rgb(237,235,225)" stroke="#ffffff"/>
<text x="276.0" y="171.0" font-family="Inter, Arial, sans-serif" font-size="12" font-weight="400" text-anchor="middle" fill="#111827">3.0%</text>
<rect x="334" y="148" width="108" height="34" rx="3" fill="rgb(174,235,225)" stroke="#ffffff"/>
<text x="388.0" y="171.0" font-family="Inter, Arial, sans-serif" font-size="12" font-weight="400" text-anchor="middle" fill="#111827">30.0%</text>
<rect x="446" y="148" width="108" height="34" rx="3" fill="rgb(226,235,225)" stroke="#ffffff"/>
<text x="500.0" y="171.0" font-family="Inter, Arial, sans-serif" font-size="12" font-weight="400" text-anchor="middle" fill="#111827">8.0%</text>
<rect x="558" y="148" width="108" height="34" rx="3" fill="rgb(209,235,225)" stroke="#ffffff"/>
<text x="612.0" y="171.0" font-family="Inter, Arial, sans-serif" font-size="12" font-weight="400" text-anchor="middle" fill="#111827">15.0%</text>
<text x="28.0" y="210.0" font-family="Inter, Arial, sans-serif" font-size="12" font-weight="400" text-anchor="start" fill="#111827">Fold 3</text>
<rect x="110" y="186" width="108" height="34" rx="3" fill="rgb(122,235,225)" stroke="#ffffff"/>
<text x="164.0" y="209.0" font-family="Inter, Arial, sans-serif" font-size="12" font-weight="400" text-anchor="middle" fill="#111827">52.1%</text>
<rect x="222" y="186" width="108" height="34" rx="3" fill="rgb(232,235,225)" stroke="#ffffff"/>
<text x="276.0" y="209.0" font-family="Inter, Arial, sans-serif" font-size="12" font-weight="400" text-anchor="middle" fill="#111827">5.2%</text>
<rect x="334" y="186" width="108" height="34" rx="3" fill="rgb(193,235,225)" stroke="#ffffff"/>
<text x="388.0" y="209.0" font-family="Inter, Arial, sans-serif" font-size="12" font-weight="400" text-anchor="middle" fill="#111827">21.9%</text>
<rect x="446" y="186" width="108" height="34" rx="3" fill="rgb(217,235,225)" stroke="#ffffff"/>
<text x="500.0" y="209.0" font-family="Inter, Arial, sans-serif" font-size="12" font-weight="400" text-anchor="middle" fill="#111827">11.5%</text>
<rect x="558" y="186" width="108" height="34" rx="3" fill="rgb(222,235,225)" stroke="#ffffff"/>
<text x="612.0" y="209.0" font-family="Inter, Arial, sans-serif" font-size="12" font-weight="400" text-anchor="middle" fill="#111827">9.4%</text>
<text x="28.0" y="248.0" font-family="Inter, Arial, sans-serif" font-size="12" font-weight="400" text-anchor="start" fill="#111827">Fold 4</text>
<rect x="110" y="224" width="108" height="34" rx="3" fill="rgb(135,235,225)" stroke="#ffffff"/>
<text x="164.0" y="247.0" font-family="Inter, Arial, sans-serif" font-size="12" font-weight="400" text-anchor="middle" fill="#111827">46.3%</text>
<rect x="222" y="224" width="108" height="34" rx="3" fill="rgb(235,235,225)" stroke="#ffffff"/>
<text x="276.0" y="247.0" font-family="Inter, Arial, sans-serif" font-size="12" font-weight="400" text-anchor="middle" fill="#111827">4.2%</text>
<rect x="334" y="224" width="108" height="34" rx="3" fill="rgb(180,235,225)" stroke="#ffffff"/>
<text x="388.0" y="247.0" font-family="Inter, Arial, sans-serif" font-size="12" font-weight="400" text-anchor="middle" fill="#111827">27.4%</text>
<rect x="446" y="224" width="108" height="34" rx="3" fill="rgb(217,235,225)" stroke="#ffffff"/>
<text x="500.0" y="247.0" font-family="Inter, Arial, sans-serif" font-size="12" font-weight="400" text-anchor="middle" fill="#111827">11.6%</text>
<rect x="558" y="224" width="108" height="34" rx="3" fill="rgb(220,235,225)" stroke="#ffffff"/>
<text x="612.0" y="247.0" font-family="Inter, Arial, sans-serif" font-size="12" font-weight="400" text-anchor="middle" fill="#111827">10.5%</text>
</svg>
